<?xml version="1.0" encoding="UTF-8" standalone="no"?>
<!-- Creator: CorelDRAW X8 -->

<svg
   xmlns:dc="http://purl.org/dc/elements/1.1/"
   xmlns:cc="http://creativecommons.org/ns#"
   xmlns:rdf="http://www.w3.org/1999/02/22-rdf-syntax-ns#"
   xmlns:svg="http://www.w3.org/2000/svg"
   xmlns="http://www.w3.org/2000/svg"
   xmlns:sodipodi="http://sodipodi.sourceforge.net/DTD/sodipodi-0.dtd"
   xmlns:inkscape="http://www.inkscape.org/namespaces/inkscape"
   xml:space="preserve"
   width="200mm"
   height="200mm"
   version="1.1"
   style="shape-rendering:geometricPrecision; text-rendering:geometricPrecision; image-rendering:optimizeQuality; fill-rule:evenodd; clip-rule:evenodd"
   viewBox="0 0 20000 20000"
   id="svg4507"
   sodipodi:docname="Hine_A.svg"
   inkscape:version="0.92.1 r15371"><metadata
   id="metadata4511"><rdf:RDF><cc:Work
       rdf:about=""><dc:format>image/svg+xml</dc:format><dc:type
         rdf:resource="http://purl.org/dc/dcmitype/StillImage" /></cc:Work></rdf:RDF></metadata><sodipodi:namedview
   pagecolor="#ffffff"
   bordercolor="#666666"
   borderopacity="1"
   objecttolerance="10"
   gridtolerance="10"
   guidetolerance="10"
   inkscape:pageopacity="0"
   inkscape:pageshadow="2"
   inkscape:window-width="1366"
   inkscape:window-height="716"
   id="namedview4509"
   showgrid="false"
   inkscape:zoom="0.70511458"
   inkscape:cx="377.95276"
   inkscape:cy="380.31108"
   inkscape:window-x="-8"
   inkscape:window-y="-8"
   inkscape:window-maximized="1"
   inkscape:current-layer="svg4507" />
 <defs
   id="defs4487">
  <style
   type="text/css"
   id="style4485">
   <![CDATA[
    .fil4 {fill:#116337}
    .fil6 {fill:#160D45}
    .fil0 {fill:#352B68}
    .fil2 {fill:#393F8F}
    .fil3 {fill:#E31E24}
    .fil1 {fill:#FFED00}
    .fil5 {fill:white}
   ]]>
  </style>
 
  
  
  
  
  
  
  
  
  
 </defs>
 <path
   style="fill:#ffed00"
   inkscape:connector-curvature="0"
   id="path4492"
   d="M 19360,9999 C 19360,4823 15163,626 9987,626 4810,626 614,4823 614,9999 c 0,5177 4196,9373 9373,9373 5176,0 9373,-4196 9373,-9373 z"
   class="fil1" /><path
   style="fill:#393f8f"
   inkscape:connector-curvature="0"
   id="path4494"
   d="m 18634,9999 c 0,-4775 -3872,-8647 -8647,-8647 -4776,0 -8647,3872 -8647,8647 0,4776 3871,8647 8647,8647 4775,0 8647,-3871 8647,-8647 z"
   class="fil2" /><path
   style="fill:#e31e24"
   inkscape:connector-curvature="0"
   id="path4496"
   d="m 17908,9999 c 0,-4374 -3547,-7921 -7921,-7921 -4375,0 -7922,3547 -7922,7921 0,4375 3547,7921 7922,7921 4374,0 7921,-3546 7921,-7921 z"
   class="fil3" /><path
   style="fill:#116337"
   inkscape:connector-curvature="0"
   id="path4498"
   d="m 17182,9999 c 0,-3973 -3222,-7195 -7195,-7195 -3974,0 -7196,3222 -7196,7195 0,3974 3222,7196 7196,7196 3973,0 7195,-3222 7195,-7196 z"
   class="fil4" /><path
   style="fill:#ffffff"
   inkscape:connector-curvature="0"
   id="path4500"
   d="m 16456,9999 c 0,-3573 -2897,-6469 -6469,-6469 -3573,0 -6470,2896 -6470,6469 0,3573 2897,6470 6470,6470 3572,0 6469,-2897 6469,-6470 z"
   class="fil5" /><path
   style="fill:#160d45"
   inkscape:connector-curvature="0"
   id="path4502"
   d="m 15730,9999 c 0,-3172 -2571,-5743 -5743,-5743 -3172,0 -5744,2571 -5744,5743 0,3172 2572,5744 5744,5744 3172,0 5743,-2572 5743,-5744 z"
   class="fil6" /><path
   style="fill:#ffffff"
   inkscape:connector-curvature="0"
   id="path4504"
   d="M 11280,6812 H 8317 c -75,3 -144,45 -180,111 -37,66 -37,146 2,211 133,309 390,548 707,660 27,11 47,35 54,63 6,29 -2,58 -22,80 -308,362 -555,771 -732,1213 -96,249 -121,521 -72,783 -7,27 7,54 32,65 25,11 53,4 67,-19 149,-61 300,-116 453,-163 148,-54 309,-60 461,-18 246,55 459,207 592,421 133,214 174,473 114,718 -30,384 -321,698 -702,757 -372,91 -764,37 -1096,-153 -350,-256 -594,-631 -688,-1054 -254,-1209 -79,-2469 495,-3563 12,-19 15,-41 10,-62 -6,-21 -19,-39 -38,-50 H 6373 c -10,5 -16,14 -18,25 -2,11 1,22 9,29 53,95 95,195 126,298 46,223 59,450 41,676 -18,673 5,1346 69,2015 78,534 233,1054 461,1543 437,766 1333,1145 2187,922 663,-191 1157,-745 1272,-1425 122,-712 -327,-1396 -1028,-1566 -175,-17 -352,-17 -527,0 -33,-9 -60,-35 -70,-67 -11,-33 -5,-69 16,-96 96,-312 291,-584 555,-774 110,-66 249,-55 347,25 801,719 1478,1565 2005,2504 437,717 784,1485 1033,2287 12,17 34,25 54,19 21,-6 35,-24 36,-45 l -5,-69 c -19,-1653 24,-3306 129,-4955 63,-340 119,-682 167,-1024 12,-107 20,-214 26,-322 h -1118 c -17,5 -31,17 -39,32 -8,16 -10,34 -4,50 111,603 200,1209 266,1817 79,658 117,1320 115,1983 -3,23 -21,42 -44,46 -23,5 -47,-7 -58,-27 -564,-932 -1152,-1848 -1764,-2748 -9,-33 0,-68 24,-93 334,-146 602,-411 754,-743 47,-118 0,-253 -110,-317 z"
   class="fil5" />
</svg>